# xmcd
#
# Track frame offsets:
#	150
#	12522
#	26859
#	39627
#	52313
#	62540
#	76970
#	88848
#	101803
#	115793
#
# Disc length: 1734 seconds
#
# Revision: 1
# Processed by: cddbd v1.5.2PL0 Copyright (c) Steve Scherf et al.
# Submitted via: audiograbber 1.83.01
#
DISCID=8606c40a
DTITLE=Various Artist - Old Time Country Greats
DYEAR=1900
DGENRE=Country
TTITLE0=Stuart Hamblem - I Won't Go Huntin' With You Jake
TTITLE1=Gene Autry - Mexicale Rose
TTITLE2=Roy Rogers - Don't Fence Me In
TTITLE3=Tex Ritter - Jingle Jangle Jingle
TTITLE4=Sons Of The Pioneers - One More Ride
TTITLE5=Ken Maynard - Hone On The Range
TTITLE6=Gene Autry - Back In The Saddle Again
TTITLE7=Roy Rogers - Tumbling Tumbleweeds
TTITLE8=Tex Ritter - Cattle Call
TTITLE9=Ken Maynard - the lone star trail
EXTD=
EXTT0=
EXTT1=
EXTT2=
EXTT3=
EXTT4=
EXTT5=
EXTT6=
EXTT7=
EXTT8=
EXTT9=
PLAYORDER=
